<?xml version="1.0" standalone="no"?>
<!DOCTYPE svg PUBLIC "-//W3C//DTD SVG 20010904//EN"
 "http://www.w3.org/TR/2001/REC-SVG-20010904/DTD/svg10.dtd">
<svg version="1.0" xmlns="http://www.w3.org/2000/svg"
 width="300.000000pt" height="69.000000pt" viewBox="0 0 300.000000 69.000000"
 preserveAspectRatio="xMidYMid meet">
<metadata>
Created by potrace 1.10, written by Peter Selinger 2001-2011
</metadata>
<g transform="translate(0.000000,69.000000) scale(0.100000,-0.100000)"
fill="#000000" stroke="none">
<path d="M37 650 c6 -21 28 -27 38 -11 3 6 -3 15 -14 20 -27 15 -30 14 -24 -9z"/>
<path d="M17 583 c6 -43 22 -68 34 -56 10 10 0 53 -12 53 -4 0 -6 9 -4 20 2
12 -2 20 -10 20 -10 0 -12 -10 -8 -37z"/>
<path d="M683 595 c-50 -8 -126 -26 -168 -40 -43 -14 -80 -23 -83 -20 -3 3 -1
5 4 5 6 0 19 7 30 15 17 14 17 14 -11 3 -16 -6 -36 -16 -42 -21 -9 -6 -13 -5
-13 3 0 7 -16 0 -37 -16 -27 -20 -35 -23 -30 -10 5 12 3 15 -6 9 -6 -4 -21 -9
-32 -10 -11 -2 -28 -14 -38 -26 -17 -20 -18 -20 -13 -2 6 20 6 20 -9 1 -10
-14 -15 -15 -15 -6 0 11 -3 11 -12 2 -8 -8 -9 -18 0 -36 9 -20 8 -24 -5 -22
-8 2 -21 13 -29 27 -7 13 -13 18 -14 10 0 -8 -7 -11 -18 -7 -9 3 1 -10 23 -30
48 -43 48 -43 211 24 239 99 442 140 619 127 83 -6 267 -29 325 -41 20 -5 22
-3 10 5 -8 6 -25 11 -37 11 -12 0 -23 5 -25 11 -12 35 -424 59 -585 34z"/>
<path d="M979 493 c-12 -32 -26 -43 -56 -43 -19 0 -23 6 -23 33 l-1 32 -14
-32 c-8 -18 -21 -33 -30 -33 -9 0 -22 15 -30 33 -11 24 -14 27 -15 12 -1 -49
-52 -60 -86 -18 l-21 27 5 -34 c5 -32 4 -33 -24 -26 -16 4 -36 7 -44 8 -8 0
-25 10 -37 21 -34 30 -28 7 7 -30 l31 -33 -33 6 c-18 4 -53 15 -77 25 -58 25
-63 17 -10 -15 61 -36 27 -46 -46 -12 -70 32 -72 16 -2 -19 49 -25 50 -26 17
-21 -19 2 -44 8 -55 12 -12 4 -17 3 -12 -2 5 -5 23 -14 40 -21 31 -11 31 -12
6 -12 -14 -1 -40 4 -57 10 -17 6 -37 9 -44 7 -7 -3 11 -13 40 -22 43 -15 52
-21 46 -35 -4 -9 -8 -29 -10 -46 -4 -26 -2 -25 11 10 9 22 20 44 25 49 15 15
24 -24 13 -55 -13 -34 -3 -44 34 -34 23 6 24 7 9 24 -23 25 -20 35 21 71 36
32 37 32 45 11 8 -23 61 -50 100 -52 13 -1 -3 -5 -35 -10 -32 -5 -65 -13 -75
-19 -15 -10 -15 -10 3 -6 11 3 74 13 140 21 157 20 317 59 383 92 50 25 52 27
33 38 l-22 11 26 24 c39 36 30 45 -12 11 -34 -28 -65 -33 -45 -8 25 33 20 47
-7 18 -27 -29 -53 -41 -50 -23 3 20 -3 23 -25 9 -22 -15 -25 -15 -30 -1 -8 21
-8 26 2 21 4 -3 7 8 8 24 1 36 -4 37 -17 2z m36 -105 c53 -13 58 -15 40 -25
-43 -24 -200 -62 -210 -52 -7 7 -3 8 10 3 11 -4 17 -4 13 1 -4 4 -3 14 4 22
15 18 -15 48 -57 57 -24 5 -26 4 -12 -4 9 -6 17 -16 17 -21 0 -6 -10 -3 -22 5
-32 23 -59 20 -92 -9 -34 -29 -43 -31 -68 -8 -16 14 -16 18 -4 32 12 13 39 16
168 14 87 -1 179 -8 213 -15z m-247 -55 c2 -9 -7 -13 -27 -13 -31 0 -42 14
-18 23 19 8 40 3 45 -10z"/>
<path d="M1895 506 c-81 -23 -174 -60 -270 -108 -161 -81 -221 -98 -346 -98
-71 0 -108 -4 -104 -10 3 -6 53 -10 113 -11 59 0 136 -6 171 -12 l65 -13 -29
-22 c-26 -21 -30 -21 -49 -7 -36 26 -66 39 -74 30 -4 -4 -1 -10 6 -12 18 -7
15 -30 -5 -42 -14 -8 -10 -10 22 -11 29 0 36 3 25 10 -8 5 -11 12 -7 16 4 4
15 0 25 -9 23 -21 31 -21 54 0 10 9 21 13 25 9 4 -4 1 -11 -7 -16 -11 -7 -5
-10 20 -9 19 0 29 3 23 6 -18 7 -16 40 3 47 23 9 82 7 88 -3 6 -9 -20 -35 -44
-44 -8 -3 2 -6 23 -6 23 -1 36 3 32 9 -4 6 7 10 25 10 18 0 29 -4 25 -10 -4
-6 7 -10 25 -10 l30 0 -32 30 -33 29 30 1 c17 0 41 8 55 16 14 9 17 13 7 10
-51 -16 -108 -17 -229 -6 -73 6 -140 16 -148 21 -12 7 -10 8 7 9 34 0 155 46
305 116 193 90 273 108 368 79 21 -6 23 -5 12 6 -18 19 -145 22 -207 5z"/>
<path d="M2424 470 c-53 -11 -208 -69 -309 -116 -44 -21 -86 -37 -94 -35 -11
2 -11 -1 2 -13 14 -14 21 -13 79 14 35 17 69 30 76 30 6 0 12 4 12 10 0 5 7 6
17 3 10 -4 14 -2 10 4 -7 11 99 54 203 84 25 7 49 16 55 21 10 9 7 9 -51 -2z"/>
<path d="M0 450 c0 -5 17 -10 38 -9 30 0 33 2 17 9 -28 12 -55 12 -55 0z"/>
<path d="M2071 400 c-23 -11 -52 -31 -62 -44 -22 -29 -96 -59 -130 -54 -17 2
-3 11 54 32 43 15 76 30 74 33 -2 2 -49 -12 -103 -32 -158 -56 -164 -45 -14
23 43 19 62 31 45 29 -16 -3 -38 -1 -47 4 -39 21 -258 -53 -258 -87 0 -9 11
-14 33 -13 26 0 29 2 12 9 -17 7 -12 12 36 33 62 28 160 59 167 53 5 -6 -70
-44 -133 -68 -27 -10 -38 -16 -22 -13 15 3 27 1 27 -4 0 -10 153 -14 210 -5
26 4 42 15 63 44 20 28 41 43 77 55 28 9 50 18 50 21 0 10 -38 2 -79 -16z"/>
<path d="M2633 390 c-86 -40 -256 -92 -284 -88 -21 3 -19 6 21 27 25 13 60 23
78 23 45 -2 109 25 95 39 -14 14 -160 -21 -206 -49 -35 -21 -125 -48 -133 -40
-2 3 29 20 71 38 41 18 75 37 75 41 0 12 -16 11 -38 0 -9 -5 -47 -23 -84 -40
-38 -16 -68 -35 -68 -40 0 -14 59 -14 99 0 22 8 35 8 44 1 25 -21 293 -10 280
11 -4 7 0 8 11 4 20 -8 96 12 96 24 0 5 -19 2 -41 -6 -23 -8 -43 -15 -45 -15
-2 0 5 13 14 29 11 21 30 33 60 42 23 6 45 16 48 20 10 17 -32 8 -93 -21z
m-48 -45 c-36 -30 -86 -48 -117 -42 -22 3 -22 4 -3 11 11 4 47 18 80 31 76 29
76 29 40 0z"/>
<path d="M9 387 c10 -13 19 -45 20 -76 1 -11 5 -10 15 5 10 13 11 23 4 31 -7
9 -7 17 1 27 9 11 8 15 -5 20 -29 11 -48 7 -35 -7z"/>
<path d="M103 335 c-15 -16 -4 -53 20 -73 12 -10 13 -8 9 15 -3 16 -10 31 -15
35 -7 4 -6 12 2 22 17 20 1 21 -16 1z"/>
<path d="M280 316 c0 -14 16 -67 30 -101 27 -64 101 -215 105 -215 6 0 -5 27
-59 142 -19 43 -43 102 -51 133 -16 54 -25 69 -25 41z"/>
<path d="M920 251 c0 -6 5 -11 10 -11 14 0 12 -37 -2 -43 -7 -3 14 -6 47 -6
66 -1 104 13 71 25 -13 5 -15 9 -5 15 22 13 2 23 -61 27 -40 3 -60 1 -60 -7z"/>
<path d="M1090 250 c0 -5 6 -10 13 -10 6 0 21 -7 32 -16 17 -13 18 -16 5 -24
-11 -7 -4 -10 25 -10 30 0 36 3 25 10 -13 9 -12 12 4 25 11 8 26 15 33 15 7 0
13 5 13 10 0 6 -13 10 -30 10 -20 0 -30 -5 -30 -15 0 -8 -7 -15 -15 -15 -8 0
-15 7 -15 15 0 10 -10 15 -30 15 -16 0 -30 -4 -30 -10z"/>
<path d="M1806 235 c5 -18 2 -30 -7 -36 -9 -5 12 -9 57 -9 84 0 120 18 93 45
-11 11 -40 19 -83 22 l-67 6 7 -28z m110 -6 c9 -15 -14 -29 -48 -29 -21 0 -28
5 -28 20 0 16 7 20 34 20 19 0 38 -5 42 -11z"/>
<path d="M2033 245 c4 -8 -5 -23 -20 -35 l-26 -20 32 0 c19 0 30 4 26 10 -4 6
7 10 25 10 18 0 29 -4 25 -10 -4 -6 7 -10 24 -10 l31 0 -39 35 c-39 36 -88 49
-78 20z"/>
<path d="M2196 234 c4 -17 2 -29 -7 -35 -9 -5 11 -9 54 -9 38 0 67 4 67 10 0
6 -15 8 -40 4 -36 -6 -40 -5 -40 15 0 12 6 21 15 21 8 0 15 5 15 10 0 6 -16
10 -35 10 -33 0 -35 -2 -29 -26z"/>
<path d="M2356 234 c4 -17 2 -29 -7 -35 -9 -6 -1 -8 26 -8 22 0 34 3 28 6 -15
6 -17 43 -3 43 6 0 10 5 10 10 0 6 -14 10 -30 10 -28 0 -30 -2 -24 -26z"/>
<path d="M2460 251 c0 -5 5 -11 11 -13 9 -3 9 -10 0 -26 -11 -21 -10 -22 21
-21 18 0 27 3 21 6 -12 4 -19 33 -8 33 2 0 19 -9 37 -20 46 -28 68 -26 68 5 0
14 5 25 10 25 6 0 10 5 10 10 0 6 -16 10 -35 10 -19 0 -35 -4 -35 -10 0 -5 5
-10 10 -10 6 0 10 -7 10 -15 0 -12 -10 -10 -50 10 -53 27 -70 31 -70 16z"/>
<path d="M2703 245 c4 -8 -5 -23 -20 -35 l-26 -20 32 0 c19 0 30 4 26 10 -4 6
7 10 25 10 18 0 29 -4 25 -10 -4 -6 9 -10 32 -9 30 0 34 2 18 9 -11 4 -31 20
-44 34 -27 28 -77 37 -68 11z"/>
<path d="M10 58 c0 -31 6 -37 31 -31 22 6 26 23 4 23 -8 0 -14 5 -12 11 1 6
-4 14 -10 16 -8 3 -13 -4 -13 -19z"/>
</g>
</svg>
